<svg width="32" height="32" viewBox="0 0 32 32" fill="none" xmlns="http://www.w3.org/2000/svg">
  <!-- Black circular background -->
  <circle cx="16" cy="16" r="15" fill="#000000" stroke="#ffffff" stroke-width="2"/>
  
  <!-- Apple/fruit icon with leaf -->
  <g transform="translate(16, 16) scale(0.8)">
    <!-- Apple body -->
    <path d="M-3 -1c0-2.5 1.5-4.5 3.5-4.5s3.5 2 3.5 4.5c0 3-1.5 6-3.5 6s-3.5-3-3.5-6z" fill="white"/>
    
    <!-- Apple indentation -->
    <path d="M-1 -5c0.5-0.5 1-0.5 1.5 0" stroke="white" stroke-width="0.8" fill="none"/>
    
    <!-- Leaf -->
    <path d="M1 -5.5c1-0.5 2.5-0.2 3 1c0.5 1.2-0.5 2-1.5 1.5c-1-0.5-1.8-1.5-1.5-2.5z" fill="white"/>
    
    <!-- Measuring tape/ruler lines -->
    <g stroke="white" stroke-width="0.3" opacity="0.8">
      <line x1="4" y1="-2" x2="6" y2="-1"/>
      <line x1="4" y1="-1" x2="5.5" y2="-0.5"/>
      <line x1="4" y1="0" x2="6" y2="0.5"/>
      <line x1="4" y1="1" x2="5.5" y2="1.5"/>
      <line x1="4" y1="2" x2="6" y2="2.5"/>
    </g>
  </g>
</svg>
