<svg width="32" height="32" viewBox="0 0 32 32" fill="none" xmlns="http://www.w3.org/2000/svg">
  <!-- Black circular background with white border -->
  <circle cx="16" cy="16" r="14.5" fill="#000000" stroke="#ffffff" stroke-width="3"/>
  
  <!-- Simplified apple icon for 32px -->
  <g transform="translate(16, 16) scale(0.9)">
    <!-- Apple body -->
    <path d="M-2.5 0c0-2.2 1.2-4 3-4s3 1.8 3 4c0 2.8-1.2 5.5-3 5.5s-3-2.7-3-5.5z" fill="white"/>
    
    <!-- Apple top indent -->
    <path d="M-0.8 -4c0.3-0.3 0.8-0.3 1.1 0" stroke="white" stroke-width="0.8" fill="none"/>
    
    <!-- Leaf -->
    <path d="M0.8 -4.2c0.8-0.3 2-0.1 2.3 0.8c0.3 0.9-0.3 1.5-1.2 1.2c-0.8-0.3-1.4-1.2-1.1-2z" fill="white"/>
    
    <!-- Measuring elements -->
    <g stroke="white" stroke-width="0.4" opacity="0.9">
      <line x1="3.5" y1="-1.5" x2="5.5" y2="-0.8"/>
      <line x1="3.5" y1="-0.5" x2="5" y2="0"/>
      <line x1="3.5" y1="0.5" x2="5.5" y2="1"/>
      <line x1="3.5" y1="1.5" x2="5" y2="2"/>
    </g>
  </g>
</svg>
